<?xml version="1.0" standalone="no"?><!DOCTYPE svg PUBLIC "-//W3C//DTD SVG 1.1//EN" "http://www.w3.org/Graphics/SVG/1.1/DTD/svg11.dtd"><svg t="1688721047498" class="icon" viewBox="0 0 1024 1024" version="1.1" xmlns="http://www.w3.org/2000/svg" p-id="4873" xmlns:xlink="http://www.w3.org/1999/xlink" width="16" height="16"><path d="M416.4 273.3l49.6-7.2c2.8-0.4 5.2-2.1 6.4-4.7l22.2-45c3.1-6.3 12.1-6.3 15.2 0l22.2 45c1.2 2.5 3.6 4.2 6.4 4.7l49.6 7.2c7 1 9.8 9.6 4.7 14.5l-35.9 35c-2 2-2.9 4.8-2.4 7.5l8.5 49.4c1.2 6.9-6.1 12.2-12.3 9l-44.4-23.3c-2.5-1.3-5.4-1.3-7.9 0l-44.4 23.3c-6.2 3.3-13.5-2-12.3-9l8.5-49.4c0.5-2.8-0.4-5.6-2.4-7.5l-35.9-35c-5.1-4.9-2.3-13.5 4.6-14.5z" fill="#F9DB88" p-id="4874"></path><path d="M764.2 87.4H339.6c-1.1 0-2 0.9-2 2v61.5c0 11.6-9 21.4-20.5 21.8-12.1 0.4-22.1-9.3-22.1-21.3v-62c0-1.1-0.9-2-2-2h-40.7c-23.6 0-42.7 19.1-42.7 42.7v768c0 23.6 19.1 42.7 42.7 42.7h512c23.6 0 42.7-19.1 42.7-42.7V130c-0.1-23.5-19.2-42.6-42.8-42.6zM367.7 265.5c6.2-19.2 22.5-32.9 42.4-35.8l31.2-4.5 13.9-28.2c8.9-18.1 26.9-29.3 47.1-29.3 20.1 0 38.2 11.2 47.1 29.3l13.9 28.2 31.2 4.5c19.9 2.9 36.2 16.6 42.4 35.8 6.2 19.1 1.1 39.8-13.3 53.8l-22.6 22 5.3 31c2.6 15.3-1.6 30.9-11.6 42.7-10 11.9-24.7 18.7-40.2 18.7-8.4 0-16.9-2.1-24.4-6L502.3 413l-27.8 14.6c-7.5 4-16 6.1-24.5 6.1-15.5 0-30.2-6.8-40.2-18.7-10-11.8-14.2-27.4-11.6-42.7l5.3-31-22.5-22c-14.4-14-19.5-34.7-13.3-53.8z m311.2 589.9H337.6c-23.6 0-42.7-19.1-42.7-42.7S314 770 337.6 770h341.3c23.6 0 42.7 19.1 42.7 42.7s-19.1 42.7-42.7 42.7z m0-128H337.6c-23.6 0-42.7-19.1-42.7-42.7S314 642 337.6 642h341.3c23.6 0 42.7 19.1 42.7 42.7s-19.1 42.7-42.7 42.7z m0-128H337.6c-23.6 0-42.7-19.1-42.7-42.7S314 514 337.6 514h341.3c23.6 0 42.7 19.1 42.7 42.7s-19.1 42.7-42.7 42.7z" fill="#009F72" p-id="4875"></path></svg>