<?xml version="1.0" standalone="no"?><!DOCTYPE svg PUBLIC "-//W3C//DTD SVG 1.1//EN" "http://www.w3.org/Graphics/SVG/1.1/DTD/svg11.dtd"><svg t="1688721036302" class="icon" viewBox="0 0 1024 1024" version="1.1" xmlns="http://www.w3.org/2000/svg" p-id="4411" xmlns:xlink="http://www.w3.org/1999/xlink" width="16" height="16"><path d="M512 512m-414 0a414 414 0 1 0 828 0 414 414 0 1 0-828 0Z" fill="#F0C48A" p-id="4412"></path><path d="M513 162.2c-6.4 0-11.8-5.2-11.8-11.8V11.8c0-6.4 5.2-11.8 11.8-11.8 6.4 0 11.8 5.2 11.8 11.8v138.8c0 6.4-5.4 11.6-11.8 11.6zM840.8 298.4c-3 0-6-1.2-8.2-3.4-4.6-4.6-4.6-12 0-16.6l98.2-98.2c4.6-4.6 12-4.6 16.6 0 4.6 4.6 4.6 12 0 16.6l-98.2 98.2c-2.4 2.2-5.4 3.4-8.4 3.4zM183.2 298.4c-3 0-6-1.2-8.2-3.4L76.8 196.8c-4.6-4.6-4.6-12 0-16.6 4.6-4.6 12-4.6 16.6 0l98.2 98.2c4.6 4.6 4.6 12 0 16.6-2.4 2.2-5.4 3.4-8.4 3.4z" fill="#4C4372" p-id="4413"></path><path d="M793 504.6c0-155-125.6-280.8-280.6-281-155-0.2-281.2 126-281.2 281 0 117.8 72.6 218.6 175.4 260.4v186.6c0 33.6 27.2 60.6 60.6 60.6h89.8c33.6 0 60.6-27.2 60.6-60.6v-186.6c102.8-41.6 175.4-142.6 175.4-260.4z" fill="#FFFFFF" p-id="4414"></path><path d="M512 223.8c4 1.4 230.6 83.8 230.6 279.4 0 146.4-96.8 198.2-146.8 215.2-17.4 6-29 22.2-29 40.6v96h50.8v-90c102.8-41.8 175.4-142.6 175.4-260.4 0-155-125.8-280.8-281-280.8z" fill="#D3E6F8" p-id="4415"></path><path d="M553.2 1013.2h-82.4c-35.6 0-64.4-28.8-64.4-64.4v-94h211v94c0.2 35.6-28.6 64.4-64.2 64.4z" fill="#A4CFF2" p-id="4416"></path><path d="M566.8 1011.8c29-6.2 50.8-32 50.8-63v-94h-50.8v157z" fill="#7BABF1" p-id="4417"></path><path d="M678.2 527.2v-48.2h-42.6c-3.2-16.8-9.8-32.6-19.2-46.4l30-30-34-34-30 30c-13.8-9.2-29.4-15.8-46.4-19.2v-42.6h-48v42.6c-16.8 3.2-32.6 9.8-46.4 19.2l-30-30-34 34 30 30c-9.2 13.8-15.8 29.4-19.2 46.4h-42.6v48.2h42.6c3.2 16.8 9.8 32.6 19.2 46.4l-30 30 34 34 30-30c13.8 9.2 29.4 15.8 46.4 19.2v42.6h48v-42.6c16.8-3.2 32.6-9.8 46.4-19.2l30 30 34-34-30-30c9.2-13.8 15.8-29.4 19.2-46.4h42.6z m-167 37.6c-34 0-61.6-27.6-61.6-61.6s27.6-61.6 61.6-61.6 61.6 27.6 61.6 61.6-27.6 61.6-61.6 61.6z" fill="#FD919E" p-id="4418"></path><path d="M511.2 576.6c-40.4 0-73.4-33-73.4-73.4 0-40.4 33-73.4 73.4-73.4 40.4 0 73.4 33 73.4 73.4 0 40.4-33 73.4-73.4 73.4z m0-123.2c-27.6 0-49.8 22.4-49.8 49.8 0 27.6 22.4 49.8 49.8 49.8 27.6 0 49.8-22.4 49.8-49.8s-22.2-49.8-49.8-49.8z" fill="#4C4372" p-id="4419"></path><path d="M536 681h-48c-6.4 0-11.8-5.2-11.8-11.8V636c-11.6-3-22.6-7.6-32.8-13.6L419.8 646c-2.2 2.2-5.2 3.4-8.2 3.4-3.2 0-6-1.2-8.2-3.4l-34-34c-4.6-4.6-4.6-12 0-16.6l23.4-23.4c-6-10.4-10.6-21.4-13.6-32.8H346c-6.4 0-11.8-5.2-11.8-11.8v-48.2c0-6.4 5.2-11.8 11.8-11.8h33.2c3-11.6 7.6-22.6 13.6-32.8l-23.4-23.4c-4.6-4.6-4.6-12 0-16.6l34-34c4.6-4.6 12-4.6 16.6 0l23.4 23.4c10.4-6 21.4-10.6 32.8-13.6v-33.2c0-6.4 5.2-11.8 11.8-11.8h48c6.4 0 11.8 5.2 11.8 11.8v33.2c11.6 3 22.6 7.6 32.8 13.6l23.4-23.4c4.6-4.6 12-4.6 16.6 0l34 34c2.2 2.2 3.4 5.2 3.4 8.2 0 3.2-1.2 6-3.4 8.2l-23.4 23.4c6 10.4 10.6 21.4 13.6 32.8H678c6.4 0 11.8 5.2 11.8 11.8v48.2c0 6.4-5.2 11.8-11.8 11.8h-33.2c-3 11.6-7.6 22.6-13.6 32.8l23.4 23.4c2.2 2.2 3.4 5.2 3.4 8.2 0 3.2-1.2 6-3.4 8.2l-34 34c-2.2 2.2-5.2 3.4-8.2 3.4-3.2 0-6-1.2-8.2-3.4l-23.4-23.4c-10.4 6-21.4 10.6-32.8 13.6v33.2c-0.2 6.8-5.4 12-12 12z m-36.4-23.4h24.6v-30.8c0-5.6 4-10.4 9.6-11.6 15.2-3 29.2-8.8 42-17.4 4.6-3.2 10.8-2.6 14.8 1.4l21.8 21.8 17.4-17.4-21.8-21.8c-4-4-4.6-10.2-1.4-14.8 8.6-12.8 14.4-26.8 17.4-42 1-5.6 6-9.6 11.6-9.6h30.8v-24.6h-30.8c-5.6 0-10.4-4-11.6-9.6-3-15.2-8.8-29.2-17.4-42-3.2-4.6-2.6-10.8 1.4-14.8l21.8-21.8-17.4-17.4-21.8 21.8c-4 4-10.2 4.6-14.8 1.4-12.8-8.6-26.8-14.4-42-17.4-5.6-1-9.6-6-9.6-11.6v-30.8h-24.6v30.8c0 5.6-4 10.4-9.6 11.6-15.2 3-29.2 8.8-42 17.4-4.6 3.2-10.8 2.6-14.8-1.4l-21.8-21.8-17.4 17.4 21.8 21.8c4 4 4.6 10.2 1.4 14.8-8.6 12.8-14.4 26.8-17.4 42-1 5.6-6 9.6-11.6 9.6h-30.8v24.6h30.8c5.6 0 10.4 4 11.6 9.6 3 15.2 8.8 29.2 17.4 42 3.2 4.6 2.6 10.8-1.4 14.8L394 603.6l17.4 17.4 21.8-21.8c4-4 10.2-4.6 14.8-1.4 12.8 8.6 26.8 14.4 42 17.4 5.6 1 9.6 6 9.6 11.6v30.8zM617.6 866.2H406.4c-6.4 0-11.8-5.2-11.8-11.8 0-6.4 5.2-11.8 11.8-11.8h211c6.4 0 11.8 5.2 11.8 11.8 0 6.6-5.2 11.8-11.6 11.8z" fill="#4C4372" p-id="4420"></path><path d="M512 866.2c-6.4 0-11.8-5.2-11.8-11.8V766c0-6.4 5.2-11.8 11.8-11.8 6.4 0 11.8 5.2 11.8 11.8v88.6c0 6.4-5.4 11.6-11.8 11.6zM617.6 920.4H406.4c-6.4 0-11.8-5.2-11.8-11.8 0-6.4 5.2-11.8 11.8-11.8h211c6.4 0 11.8 5.2 11.8 11.8 0 6.6-5.2 11.8-11.6 11.8z" fill="#4C4372" p-id="4421"></path><path d="M615.6 971.2H408.4c-6.4 0-11.8-5.2-11.8-11.8 0-6.4 5.2-11.8 11.8-11.8h207.2c6.4 0 11.8 5.2 11.8 11.8 0 6.6-5.4 11.8-11.8 11.8z" fill="#4C4372" p-id="4422"></path><path d="M556.8 1024h-89.8c-40 0-72.4-32.4-72.4-72.4v-178.8c-50.2-22-93-57.4-124.2-102.8-33.4-48.8-51.2-106-51.2-165.4 0-78 30.6-151.6 86-207 55.4-55.4 128.8-85.8 207-85.8 161.2 0.2 292.4 131.4 292.4 292.6 0 59.4-17.8 116.6-51.2 165.4-31.2 45.4-74 80.8-124.2 102.8v178.8c0 40.2-32.4 72.6-72.4 72.6zM512 235.4c-71.8 0-139.2 28-190.2 78.8-51 51-79 118.6-79 190.4 0 54.6 16.2 107.2 47 152 30 43.8 72 77.6 121 97.4 4.4 1.8 7.4 6 7.4 10.8v186.6c0 27 22 49 49 49h89.8c27 0 49-22 49-49v-186.6c0-4.8 2.8-9 7.4-10.8 49-20 91-53.6 121-97.4 30.8-44.8 47-97.4 47-152 0-148.2-120.6-269-269-269.2h-0.4z" fill="#4C4372" p-id="4423"></path></svg>