<?xml version="1.0" standalone="no"?><!DOCTYPE svg PUBLIC "-//W3C//DTD SVG 1.1//EN" "http://www.w3.org/Graphics/SVG/1.1/DTD/svg11.dtd"><svg t="1688721589677" class="icon" viewBox="0 0 1024 1024" version="1.1" xmlns="http://www.w3.org/2000/svg" p-id="14150" xmlns:xlink="http://www.w3.org/1999/xlink" width="24" height="24"><path d="M512.1 513.2m-448 0a448 448 0 1 0 896 0 448 448 0 1 0-896 0Z" fill="#FFE8EB" p-id="14151"></path><path d="M511.6 662.6m-37.3 0a37.3 37.3 0 1 0 74.6 0 37.3 37.3 0 1 0-74.6 0Z" fill="#FF8788" p-id="14152"></path><path d="M513.2 363.9m-37.3 0a37.3 37.3 0 1 0 74.6 0 37.3 37.3 0 1 0-74.6 0Z" fill="#FF8788" p-id="14153"></path><path d="M663.7 613.2l-20.9-62.7v-74.7c0-72.2-58.5-130.7-130.7-130.7s-130.7 58.5-130.7 130.7v74.7l-20.9 62.7c-8.1 24.3 10 49.3 35.6 49.3h232c25.6 0.1 43.7-25 35.6-49.3z" fill="#FF6B6A" p-id="14154"></path></svg>